<svg viewBox="0 0 664 440" xmlns="http://www.w3.org/2000/svg" xmlns:xlink="http://www.w3.org/1999/xlink"><linearGradient id="a" gradientUnits="userSpaceOnUse" x1="269.57" x2="394.43" y1="220" y2="220"><stop offset="0" stop-color="#7808fd"/><stop offset="1" stop-color="#5e2ad6"/></linearGradient><rect fill="#edf2f5" height="440" rx="8" width="664"/><g opacity=".7"><circle cx="332" cy="220" fill="none" opacity=".7" r="114.69" stroke="#cad8de" stroke-miterlimit="10" stroke-width="1.04"/><circle cx="332" cy="220" fill="none" opacity=".7" r="128.92" stroke="#cad8de" stroke-miterlimit="10" stroke-width="1.04"/><circle cx="204.61" cy="241.19" fill="#cad8de" r="2.04"/><g fill="#bac9ce"><circle cx="411.65" cy="302.25" r="2.04"/><circle cx="409.7" cy="135.32" r="2.04"/><circle cx="442.14" cy="287.26" r="3.6"/><circle cx="453.23" cy="176.45" r="3.43"/><circle cx="222.2" cy="187.54" r="2.81"/><circle cx="232.5" cy="137.63" r="2.86"/><circle cx="250.46" cy="300.38" r="2.79"/></g></g><path d="m382.79 220a50.72 50.72 0 0 1 -50.16 50.78h-.63a50.42 50.42 0 0 1 -15.77-2.5 50.74 50.74 0 0 1 -35-48.29 50.74 50.74 0 0 1 50.77-50.77h.63a49.94 49.94 0 0 1 15.15 2.49 50.74 50.74 0 0 1 35 48.28z" fill="#4d0db2"/><g stroke="#cad8de"><path d="m417.82 220a85.71 85.71 0 0 1 -84.76 85.81h-1.06a85.82 85.82 0 1 1 0-171.64h1.06a85.71 85.71 0 0 1 84.76 85.83z" fill="#fff" stroke-miterlimit="10" stroke-width=".51"/><g fill="none" opacity=".8" stroke-miterlimit="10" stroke-width="1.04"><circle cx="28.24" cy="220" opacity=".6" r="7.85"/><circle cx="58.59" cy="220" opacity=".6" r="4.21"/><circle cx="605.41" cy="220" opacity=".6" r="4.21"/><circle cx="635.76" cy="220" opacity=".6" r="7.85"/></g><g fill="none" opacity=".8" stroke-linecap="round" stroke-linejoin="round"><g opacity=".7" stroke-width="1.04"><path d="m412.02 119.67 37.7-.02 22.42 33.71 65.71-.03 125.17-38.9"/><path d="m412.4 320.5 37.69-.01 22.4-33.72 65.71-.02 125.2 38.82"/><path d="m393.22 422.12 37.7-.01 22.4-33.72 65.7-.02 141.79 49.73"/><path d="m271.09 422.12-37.69-.01-22.4-33.72-65.71-.02-142.37 49.86"/></g><g opacity=".7"><path d="m251.98 119.67-37.7-.02-22.42 33.71-65.71-.03-125.17-38.9" stroke-width="1.04"/><path d="m270.52 11.78-40.37-.02-24.01 33.71-70.37-.03-132.02-44" stroke-width="1.08"/><path d="m393.51 12.07 40.37-.02 24.01 33.7 70.37-.02 132.56-44.05" stroke-width="1.08"/><path d="m251.6 320.5-37.69-.01-22.4-33.72-65.71-.02-125.2 38.82" stroke-width="1.04"/></g></g><path d="m423.62 190.07a96.34 96.34 0 0 0 -30.38-44.46v-145.61h-35v22.86l-11.12 9.43.12 92.51a95.15 95.15 0 0 0 -14.12-1.19h-1.12a96.84 96.84 0 0 0 -15.13 1.18l-.12-92.45-11.15-9.34v-22.93h-34.86v145.55a96.32 96.32 0 0 0 0 148.77v145.61h30.18v-41l11.08-15.84v-68.85a95.87 95.87 0 0 0 9.5 1.5v67.35l-11.09 15.84v41h43.18v-41l-11.13-15.84v-67.35a95.67 95.67 0 0 0 9.49-1.5v68.85l11.13 15.84v41h30.16v-145.61a96.48 96.48 0 0 0 30.38-104.32zm-10 56.59a85.7 85.7 0 0 1 -80.55 59.15h-1.07a85.82 85.82 0 1 1 0-171.64h1.06a85.88 85.88 0 0 1 80.54 112.49z" fill="none" stroke-miterlimit="10" stroke-width=".51"/></g><path d="m423.62 190.07a96.34 96.34 0 0 0 -30.38-44.46v-145.61h-35v22.86l-11.12 9.43.12 92.51a95.15 95.15 0 0 0 -14.12-1.19h-1.12a96.84 96.84 0 0 0 -15.13 1.18l-.12-92.45-11.15-9.34v-22.93h-34.86v145.55a96.32 96.32 0 0 0 0 148.77v145.61h30.18v-41l11.08-15.84v-68.85a95.87 95.87 0 0 0 9.5 1.5v67.35l-11.09 15.84v41h43.18v-41l-11.13-15.84v-67.35a95.67 95.67 0 0 0 9.49-1.5v68.85l11.13 15.84v41h30.16v-145.61a96.48 96.48 0 0 0 30.38-104.32zm-10 56.59a85.7 85.7 0 0 1 -80.55 59.15h-1.07a85.82 85.82 0 1 1 0-171.64h1.06a85.88 85.88 0 0 1 80.54 112.49z" fill="#fff" opacity=".6"/><path d="m331.84.3.32 439.7" fill="#fff" stroke="#cad8de" stroke-miterlimit="10" stroke-width=".51"/><path d="m394.07 220a62 62 0 0 1 -61.3 62.06h-.77a62.07 62.07 0 1 1 0-124.14h.77a61.25 61.25 0 0 1 18.51 3 62 62 0 0 1 42.79 59z" fill="#fff" stroke="#cad8de" stroke-miterlimit="10" stroke-width=".51"/><path d="m394.07 220a62 62 0 0 1 -61.3 62.06h-.77a62.07 62.07 0 1 1 0-124.14h.77a61.25 61.25 0 0 1 18.51 3 62 62 0 0 1 42.79 59z" fill="none" opacity=".3" stroke="url(#a)" stroke-miterlimit="10" stroke-width=".73"/></svg>